<svg width="319" height="300" viewBox="0 0 319 300" fill="none" xmlns="http://www.w3.org/2000/svg">
<path d="M174.684 15.541H164.559V26H159.285V0.40625H175.949V4.67773H164.559V11.2871H174.684V15.541ZM189.098 26C188.863 25.543 188.693 24.9746 188.588 24.2949C187.357 25.666 185.758 26.3516 183.789 26.3516C181.926 26.3516 180.379 25.8125 179.148 24.7344C177.93 23.6562 177.32 22.2969 177.32 20.6562C177.32 18.6406 178.064 17.0938 179.553 16.0156C181.053 14.9375 183.215 14.3926 186.039 14.3809H188.377V13.291C188.377 12.4121 188.148 11.709 187.691 11.1816C187.246 10.6543 186.537 10.3906 185.564 10.3906C184.709 10.3906 184.035 10.5957 183.543 11.0059C183.062 11.416 182.822 11.9785 182.822 12.6934H177.742C177.742 11.5918 178.082 10.5723 178.762 9.63477C179.441 8.69727 180.402 7.96484 181.645 7.4375C182.887 6.89844 184.281 6.62891 185.828 6.62891C188.172 6.62891 190.029 7.2207 191.4 8.4043C192.783 9.57617 193.475 11.2285 193.475 13.3613V21.6055C193.486 23.4102 193.738 24.7754 194.23 25.7012V26H189.098ZM184.896 22.4668C185.646 22.4668 186.338 22.3027 186.971 21.9746C187.604 21.6348 188.072 21.1836 188.377 20.6211V17.3516H186.479C183.936 17.3516 182.582 18.2305 182.418 19.9883L182.4 20.2871C182.4 20.9199 182.623 21.4414 183.068 21.8516C183.514 22.2617 184.123 22.4668 184.896 22.4668ZM207.678 20.7441C207.678 20.123 207.367 19.6367 206.746 19.2852C206.137 18.9219 205.152 18.5996 203.793 18.3184C199.27 17.3691 197.008 15.4473 197.008 12.5527C197.008 10.8652 197.705 9.45898 199.1 8.33398C200.506 7.19727 202.34 6.62891 204.602 6.62891C207.016 6.62891 208.943 7.19727 210.385 8.33398C211.838 9.4707 212.564 10.9473 212.564 12.7637H207.484C207.484 12.0371 207.25 11.4395 206.781 10.9707C206.312 10.4902 205.58 10.25 204.584 10.25C203.729 10.25 203.066 10.4434 202.598 10.8301C202.129 11.2168 201.895 11.709 201.895 12.3066C201.895 12.8691 202.158 13.3262 202.686 13.6777C203.225 14.0176 204.127 14.3164 205.393 14.5742C206.658 14.8203 207.725 15.1016 208.592 15.418C211.275 16.4023 212.617 18.1074 212.617 20.5332C212.617 22.2676 211.873 23.6738 210.385 24.752C208.896 25.8184 206.975 26.3516 204.619 26.3516C203.025 26.3516 201.607 26.0703 200.365 25.5078C199.135 24.9336 198.168 24.1543 197.465 23.1699C196.762 22.1738 196.41 21.1016 196.41 19.9531H201.227C201.273 20.8555 201.607 21.5469 202.229 22.0273C202.85 22.5078 203.682 22.748 204.725 22.748C205.697 22.748 206.43 22.5664 206.922 22.2031C207.426 21.8281 207.678 21.3418 207.678 20.7441ZM221.986 2.30469V6.98047H225.238V10.707H221.986V20.1992C221.986 20.9023 222.121 21.4062 222.391 21.7109C222.66 22.0156 223.176 22.168 223.938 22.168C224.5 22.168 224.998 22.127 225.432 22.0449V25.8945C224.436 26.1992 223.41 26.3516 222.355 26.3516C218.793 26.3516 216.977 24.5527 216.906 20.9551V10.707H214.129V6.98047H216.906V2.30469H221.986ZM172.557 61.2852C172.557 60.2891 172.205 59.5273 171.502 59C170.799 58.4609 169.533 57.8984 167.705 57.3125C165.877 56.7148 164.43 56.1289 163.363 55.5547C160.457 53.9844 159.004 51.8691 159.004 49.209C159.004 47.8262 159.391 46.5957 160.164 45.5176C160.949 44.4277 162.068 43.5781 163.521 42.9688C164.986 42.3594 166.627 42.0547 168.443 42.0547C170.271 42.0547 171.9 42.3887 173.33 43.0566C174.76 43.7129 175.867 44.6445 176.652 45.8516C177.449 47.0586 177.848 48.4297 177.848 49.9648H172.574C172.574 48.793 172.205 47.8848 171.467 47.2402C170.729 46.584 169.691 46.2559 168.355 46.2559C167.066 46.2559 166.064 46.5312 165.35 47.082C164.635 47.6211 164.277 48.3359 164.277 49.2266C164.277 50.0586 164.693 50.7559 165.525 51.3184C166.369 51.8809 167.605 52.4082 169.234 52.9004C172.234 53.8027 174.42 54.9219 175.791 56.2578C177.162 57.5938 177.848 59.2578 177.848 61.25C177.848 63.4648 177.01 65.2051 175.334 66.4707C173.658 67.7246 171.402 68.3516 168.566 68.3516C166.598 68.3516 164.805 67.9941 163.188 67.2793C161.57 66.5527 160.334 65.5625 159.479 64.3086C158.635 63.0547 158.213 61.6016 158.213 59.9492H163.504C163.504 62.7734 165.191 64.1855 168.566 64.1855C169.82 64.1855 170.799 63.9336 171.502 63.4297C172.205 62.9141 172.557 62.1992 172.557 61.2852ZM189.854 68.3516C187.064 68.3516 184.791 67.4961 183.033 65.7852C181.287 64.0742 180.414 61.7949 180.414 58.9473V58.4551C180.414 56.5449 180.783 54.8398 181.521 53.3398C182.26 51.8281 183.303 50.668 184.65 49.8594C186.01 49.0391 187.557 48.6289 189.291 48.6289C191.893 48.6289 193.938 49.4492 195.426 51.0898C196.926 52.7305 197.676 55.0566 197.676 58.0684V60.1426H185.564C185.729 61.3848 186.221 62.3809 187.041 63.1309C187.873 63.8809 188.922 64.2559 190.188 64.2559C192.145 64.2559 193.674 63.5469 194.775 62.1289L197.271 64.9238C196.51 66.002 195.479 66.8457 194.178 67.4551C192.877 68.0527 191.436 68.3516 189.854 68.3516ZM189.273 52.7422C188.266 52.7422 187.445 53.082 186.812 53.7617C186.191 54.4414 185.793 55.4141 185.617 56.6797H192.684V56.2754C192.66 55.1504 192.355 54.2832 191.77 53.6738C191.184 53.0527 190.352 52.7422 189.273 52.7422ZM211.264 53.7441C210.572 53.6504 209.963 53.6035 209.436 53.6035C207.514 53.6035 206.254 54.2539 205.656 55.5547V68H200.576V48.9805H205.375L205.516 51.248C206.535 49.502 207.947 48.6289 209.752 48.6289C210.314 48.6289 210.842 48.7051 211.334 48.8574L211.264 53.7441ZM221.16 61.7949L224.693 48.9805H230.002L223.586 68H218.734L212.318 48.9805H217.627L221.16 61.7949ZM237.613 68H232.516V48.9805H237.613V68ZM232.217 44.0586C232.217 43.2969 232.469 42.6699 232.973 42.1777C233.488 41.6855 234.186 41.4395 235.064 41.4395C235.932 41.4395 236.623 41.6855 237.139 42.1777C237.654 42.6699 237.912 43.2969 237.912 44.0586C237.912 44.832 237.648 45.4648 237.121 45.957C236.605 46.4492 235.92 46.6953 235.064 46.6953C234.209 46.6953 233.518 46.4492 232.99 45.957C232.475 45.4648 232.217 44.832 232.217 44.0586ZM249.725 64.2559C250.662 64.2559 251.424 63.998 252.01 63.4824C252.596 62.9668 252.9 62.2812 252.924 61.4258H257.688C257.676 62.7148 257.324 63.8984 256.633 64.9766C255.941 66.043 254.992 66.875 253.785 67.4727C252.59 68.0586 251.266 68.3516 249.812 68.3516C247.094 68.3516 244.949 67.4902 243.379 65.7676C241.809 64.0332 241.023 61.6426 241.023 58.5957V58.2617C241.023 55.332 241.803 52.9941 243.361 51.248C244.92 49.502 247.059 48.6289 249.777 48.6289C252.156 48.6289 254.061 49.3086 255.49 50.668C256.932 52.0156 257.664 53.8145 257.688 56.0645H252.924C252.9 55.0801 252.596 54.2832 252.01 53.6738C251.424 53.0527 250.65 52.7422 249.689 52.7422C248.506 52.7422 247.609 53.1758 247 54.043C246.402 54.8984 246.104 56.293 246.104 58.2266V58.7539C246.104 60.7109 246.402 62.1172 247 62.9727C247.598 63.8281 248.506 64.2559 249.725 64.2559ZM269.342 68.3516C266.553 68.3516 264.279 67.4961 262.521 65.7852C260.775 64.0742 259.902 61.7949 259.902 58.9473V58.4551C259.902 56.5449 260.271 54.8398 261.01 53.3398C261.748 51.8281 262.791 50.668 264.139 49.8594C265.498 49.0391 267.045 48.6289 268.779 48.6289C271.381 48.6289 273.426 49.4492 274.914 51.0898C276.414 52.7305 277.164 55.0566 277.164 58.0684V60.1426H265.053C265.217 61.3848 265.709 62.3809 266.529 63.1309C267.361 63.8809 268.41 64.2559 269.676 64.2559C271.633 64.2559 273.162 63.5469 274.264 62.1289L276.76 64.9238C275.998 66.002 274.967 66.8457 273.666 67.4551C272.365 68.0527 270.924 68.3516 269.342 68.3516ZM268.762 52.7422C267.754 52.7422 266.934 53.082 266.301 53.7617C265.68 54.4414 265.281 55.4141 265.105 56.6797H272.172V56.2754C272.148 55.1504 271.844 54.2832 271.258 53.6738C270.672 53.0527 269.84 52.7422 268.762 52.7422Z" fill="#283044" fill-opacity="0.1"/>
<path d="M255.268 300L0 145.961V14L319 215.423V300H255.268Z" fill="url(#paint0_linear_0_1)" fill-opacity="0.2"/>
<path d="M88.8574 154.73L102.184 147.067L102.185 147.068C104.615 145.78 107.736 145.964 111.141 147.93C118.889 152.403 125.169 164.403 125.169 174.733C125.169 180.412 123.268 184.399 120.271 186.099L120.273 186.104L107.477 193.47L88.8574 154.73Z" fill="url(#paint1_linear_0_1)"/>
<path d="M141.586 185.27L154.913 177.607L154.913 177.608C157.343 176.32 160.464 176.504 163.869 178.47C171.617 182.943 177.897 194.943 177.897 205.273C177.897 210.952 175.997 214.939 173 216.639L173.002 216.643L160.206 224.009L141.586 185.27Z" fill="url(#paint2_linear_0_1)"/>
<path d="M77.3125 129.41V65.4843L179.915 69.8839V133.809C179.915 135.274 179.19 136.739 177.74 137.576L137.095 161.042C134.205 162.711 130.643 162.711 127.752 161.042L79.4866 133.176C78.0373 132.34 77.3125 130.874 77.3125 129.41Z" fill="url(#paint3_linear_0_1)"/>
<path d="M177.741 66.118L129.475 38.2518C126.585 36.5829 123.023 36.5829 120.133 38.2518L79.4875 61.718C76.5882 63.392 76.5882 67.5765 79.4875 69.2505L127.753 97.1167C130.644 98.7856 134.205 98.7856 137.096 97.1167L177.741 73.6505C180.64 71.9765 180.64 67.7916 177.741 66.118Z" fill="url(#paint4_linear_0_1)"/>
<path d="M162.091 57.0826L110.251 87.0121L96.5 79.0728L148.34 49.1433L162.091 57.0826Z" fill="#DEA861"/>
<path d="M153.872 52.3331L102.032 82.2629L104.726 83.818L156.565 53.8885L153.872 52.3331Z" fill="#CC8241"/>
<path d="M220.569 160.407L210.742 119.204C209.564 114.268 206.407 110.033 202.012 107.496L180.889 95.2848C179.623 94.5541 178.178 94.7674 177.173 95.5598L140.249 116.878L132.845 121.153L175.697 215.186L219.158 190.094C219.462 189.97 219.748 189.805 220.007 189.604C220.831 188.966 221.389 187.972 221.389 186.782V167.373C221.389 165.027 221.114 162.689 220.569 160.407Z" fill="url(#paint5_linear_0_1)"/>
<path d="M182.171 187.057L188.362 183.484C188.731 183.271 189.191 183.537 189.191 183.963V189.397C189.191 190.133 188.799 190.814 188.16 191.182L181.97 194.756C181.601 194.969 181.14 194.703 181.14 194.277V188.843C181.141 188.107 181.533 187.426 182.171 187.057Z" fill="#E9E5F6"/>
<path d="M212.634 169.453L218.824 165.879C219.193 165.666 219.654 165.932 219.654 166.358V171.792C219.654 172.529 219.261 173.209 218.623 173.578L212.432 177.151C212.063 177.364 211.603 177.098 211.603 176.672V171.238C211.603 170.502 211.995 169.821 212.634 169.453Z" fill="#E9E5F6"/>
<path d="M131.535 156.657V123.794C131.535 121.241 134.298 119.645 136.509 120.922L157.632 133.132C162.027 135.67 165.185 139.904 166.362 144.841L176.19 186.043C176.734 188.325 177.009 190.663 177.009 193.009V212.419C177.009 215.172 174.029 216.892 171.645 215.516L81.4838 163.3C78.8614 161.786 77.2461 158.988 77.2461 155.96V135.446C77.2461 133.79 79.0398 132.754 80.4744 133.582L125.868 159.921C128.384 161.38 131.535 159.565 131.535 156.657Z" fill="#06DAAE"/>
<path d="M136.992 162.08V128.399L154.039 138.256C155.725 139.23 156.913 140.879 157.304 142.786L164.513 177.985L136.992 162.08Z" fill="url(#paint6_linear_0_1)"/>
<path d="M209.383 122.454L171.524 144.312L179.305 177.984L217.164 156.127L209.383 122.454Z" fill="url(#paint7_linear_0_1)"/>
<path d="M136.903 196.513C136.903 186.183 143.184 181.435 150.931 185.908C158.679 190.381 164.959 202.381 164.959 212.711C164.959 223.041 158.679 227.79 150.931 223.317C143.184 218.843 136.903 206.843 136.903 196.513Z" fill="url(#paint8_linear_0_1)"/>
<path d="M156.246 216.873C160.1 215.23 160.872 208.376 157.969 201.563C155.066 194.75 149.588 190.559 145.734 192.201C141.879 193.843 141.108 200.697 144.011 207.51C146.914 214.323 152.392 218.515 156.246 216.873Z" fill="#E9E5F6"/>
<path d="M153.667 210.821C155.631 209.984 156.024 206.492 154.545 203.021C153.066 199.55 150.275 197.415 148.312 198.251C146.348 199.088 145.955 202.58 147.434 206.051C148.913 209.522 151.704 211.657 153.667 210.821Z" fill="#7662BD"/>
<path d="M84.1748 165.973C84.1748 155.643 90.4555 150.895 98.2028 155.368C105.951 159.841 112.231 171.841 112.231 182.171C112.231 192.501 105.95 197.249 98.2028 192.776C90.4552 188.304 84.1748 176.303 84.1748 165.973Z" fill="url(#paint9_linear_0_1)"/>
<path d="M103.511 186.362C107.366 184.72 108.137 177.865 105.234 171.052C102.331 164.239 96.8532 160.048 92.9989 161.69C89.1446 163.332 88.3733 170.187 91.2762 176.999C94.1791 183.812 99.6569 188.004 103.511 186.362Z" fill="#E9E5F6"/>
<path d="M93.7534 171.503C93.7534 168.227 95.7454 166.721 98.203 168.14C100.661 169.558 102.653 173.365 102.653 176.641C102.653 179.918 100.66 181.424 98.203 180.005C95.7454 178.586 93.7534 174.78 93.7534 171.503Z" fill="#7662BD"/>
<path d="M221.265 184.838L175.73 209.77L167.338 205.737V215.498L174.538 219.654C175.809 220.388 177.375 220.388 178.646 219.654L222.642 194.253C223.215 193.923 223.501 193.344 223.501 192.765V183.004L221.265 184.838Z" fill="url(#paint10_linear_0_1)"/>
<path d="M169.286 204.612L177.009 209.071L221.389 183.448V180.793L222.642 181.516C223.787 182.178 223.787 183.831 222.642 184.492L178.646 209.893C177.375 210.626 175.809 210.626 174.538 209.893L167.338 205.736L169.286 204.612Z" fill="#A996EB"/>
<path d="M191.605 191.939L210.216 181.194V184.385C210.216 186.413 209.134 188.288 207.378 189.301L194.401 196.793C193.158 197.511 191.605 196.614 191.605 195.179V191.939H191.605Z" fill="url(#paint11_linear_0_1)"/>
<path d="M49.733 88.7264L82.0275 107.372C83.6776 108.325 84.694 110.085 84.694 111.991C84.694 113.65 82.8977 114.687 81.4605 113.857L49.166 95.212C47.5159 94.2592 46.4995 92.4985 46.4995 90.5932C46.4995 88.9339 48.2958 87.8966 49.733 88.7264Z" fill="url(#paint12_linear_0_1)"/>
<path d="M61.5386 109.289L93.8331 127.934C95.4833 128.887 96.4997 130.647 96.4997 132.553C96.4997 134.212 94.7034 135.249 93.2662 134.42L60.9717 115.774C59.3216 114.821 58.3052 113.06 58.3052 111.155C58.3052 109.496 60.1015 108.459 61.5386 109.289Z" fill="url(#paint13_linear_0_1)"/>
<defs>
<linearGradient id="paint0_linear_0_1" x1="244.731" y1="334.986" x2="-3.23533" y2="99.5936" gradientUnits="userSpaceOnUse">
<stop stop-color="#78A1BB"/>
<stop offset="1" stop-color="white" stop-opacity="0"/>
</linearGradient>
<linearGradient id="paint1_linear_0_1" x1="108.355" y1="166.028" x2="102.587" y2="156.037" gradientUnits="userSpaceOnUse">
<stop stop-color="#43386B"/>
<stop offset="1" stop-color="#7662BD"/>
</linearGradient>
<linearGradient id="paint2_linear_0_1" x1="161.084" y1="196.568" x2="155.316" y2="186.577" gradientUnits="userSpaceOnUse">
<stop stop-color="#43386B"/>
<stop offset="1" stop-color="#7662BD"/>
</linearGradient>
<linearGradient id="paint3_linear_0_1" x1="140.625" y1="113.889" x2="126.531" y2="113.889" gradientUnits="userSpaceOnUse">
<stop stop-color="#DEA861"/>
<stop offset="1" stop-color="#CC8241"/>
</linearGradient>
<linearGradient id="paint4_linear_0_1" x1="157.179" y1="51.1926" x2="104.396" y2="81.6665" gradientUnits="userSpaceOnUse">
<stop stop-color="#DEA861"/>
<stop offset="1" stop-color="#EBCBA0"/>
</linearGradient>
<linearGradient id="paint5_linear_0_1" x1="189.505" y1="159.992" x2="170.733" y2="127.478" gradientUnits="userSpaceOnUse">
<stop stop-color="#236568"/>
<stop offset="0.1516" stop-color="#276A6C"/>
<stop offset="0.3251" stop-color="#337878"/>
<stop offset="0.5094" stop-color="#478E8C"/>
<stop offset="0.7011" stop-color="#62AFA7"/>
<stop offset="0.8968" stop-color="#86D7CA"/>
<stop offset="1" stop-color="#9BF0DF"/>
</linearGradient>
<linearGradient id="paint6_linear_0_1" x1="150.752" y1="176.263" x2="150.752" y2="133.695" gradientUnits="userSpaceOnUse">
<stop stop-color="#43386B"/>
<stop offset="1" stop-color="#7662BD"/>
</linearGradient>
<linearGradient id="paint7_linear_0_1" x1="194.344" y1="176.056" x2="194.344" y2="128.386" gradientUnits="userSpaceOnUse">
<stop stop-color="#43386B"/>
<stop offset="1" stop-color="#7662BD"/>
</linearGradient>
<linearGradient id="paint8_linear_0_1" x1="150.931" y1="230.756" x2="150.931" y2="180.14" gradientUnits="userSpaceOnUse">
<stop stop-color="#43386B"/>
<stop offset="1" stop-color="#7662BD"/>
</linearGradient>
<linearGradient id="paint9_linear_0_1" x1="98.2028" y1="200.216" x2="98.2028" y2="149.6" gradientUnits="userSpaceOnUse">
<stop stop-color="#43386B"/>
<stop offset="1" stop-color="#7662BD"/>
</linearGradient>
<linearGradient id="paint10_linear_0_1" x1="175.213" y1="201.605" x2="181.987" y2="201.605" gradientUnits="userSpaceOnUse">
<stop stop-color="#43386B"/>
<stop offset="1" stop-color="#7662BD"/>
</linearGradient>
<linearGradient id="paint11_linear_0_1" x1="200.911" y1="196.496" x2="200.911" y2="182.887" gradientUnits="userSpaceOnUse">
<stop stop-color="#43386B"/>
<stop offset="1" stop-color="#594A8E"/>
</linearGradient>
<linearGradient id="paint12_linear_0_1" x1="87.5867" y1="114.824" x2="49.2189" y2="91.213" gradientUnits="userSpaceOnUse">
<stop stop-color="#43386B"/>
<stop offset="1" stop-color="#7662BD"/>
</linearGradient>
<linearGradient id="paint13_linear_0_1" x1="99.3927" y1="135.386" x2="61.0246" y2="111.775" gradientUnits="userSpaceOnUse">
<stop stop-color="#43386B"/>
<stop offset="1" stop-color="#7662BD"/>
</linearGradient>
</defs>
</svg>
