<svg width="550" height="550" viewBox="0 0 550 550" fill="none" xmlns="http://www.w3.org/2000/svg">
<path d="M140.008 344.421L178.997 322.004L178.998 322.007C186.106 318.241 195.237 318.777 205.199 324.528C227.865 337.614 246.239 372.721 246.239 402.942C246.239 419.557 240.678 431.219 231.91 436.193L231.916 436.207L194.482 457.757L140.008 344.421Z" fill="url(#paint0_linear_7_148)"/>
<path d="M294.267 433.767L333.256 411.349L333.257 411.353C340.365 407.586 349.496 408.123 359.458 413.874C382.123 426.96 400.498 462.067 400.498 492.288C400.498 508.902 394.937 520.565 386.169 525.539L386.175 525.552L348.741 547.102L294.267 433.767Z" fill="url(#paint1_linear_7_148)"/>
<path d="M106.233 270.348V83.3315L406.398 96.2028V283.219C406.4 287.504 404.279 291.789 400.037 294.238L281.128 362.889C272.672 367.772 262.252 367.772 253.796 362.889L112.593 281.366C108.353 278.919 106.233 274.633 106.233 270.348Z" fill="url(#paint2_linear_7_148)"/>
<path d="M400.037 85.1855L258.834 3.66199C250.378 -1.22034 239.958 -1.22034 231.502 3.66199L112.594 72.3131C104.112 77.2105 104.112 89.4523 112.594 94.3497L253.796 175.873C262.253 180.756 272.673 180.756 281.129 175.873L400.037 107.222C408.519 102.325 408.519 90.0818 400.037 85.1855Z" fill="url(#paint3_linear_7_148)"/>
<path d="M354.254 58.7521L202.596 146.312L162.366 123.085L314.024 35.5254L354.254 58.7521Z" fill="#DEA861"/>
<path d="M330.209 44.8572L178.551 132.418L186.431 136.967L338.09 49.4076L330.209 44.8572Z" fill="#CC8241"/>
<path d="M525.336 361.03L496.584 240.491C493.139 226.049 483.903 213.66 471.045 206.237L409.248 170.514C405.546 168.376 401.32 169 398.378 171.319L290.355 233.686L268.694 246.192L394.061 521.289L521.208 447.882C522.096 447.517 522.932 447.035 523.691 446.447C526.102 444.583 527.733 441.673 527.733 438.193V381.409C527.733 374.546 526.928 367.706 525.336 361.03Z" fill="url(#paint4_linear_7_148)"/>
<path d="M413 438.998L431.11 428.542C432.189 427.919 433.538 428.698 433.538 429.944V445.841C433.538 447.996 432.388 449.988 430.521 451.065L412.411 461.521C411.331 462.144 409.983 461.365 409.983 460.119V444.222C409.984 442.067 411.134 440.076 413 438.998Z" fill="#E9E5F6"/>
<path d="M502.119 387.494L520.229 377.039C521.309 376.416 522.657 377.195 522.657 378.441V394.338C522.657 396.493 521.508 398.485 519.641 399.562L501.53 410.017C500.451 410.64 499.103 409.862 499.103 408.616V392.718C499.103 390.563 500.252 388.572 502.119 387.494Z" fill="#E9E5F6"/>
<path d="M264.862 350.061V253.917C264.862 246.449 272.946 241.781 279.414 245.516L341.211 281.238C354.069 288.662 363.305 301.05 366.75 315.492L395.502 436.031C397.094 442.707 397.898 449.547 397.898 456.41V513.194C397.898 521.247 389.18 526.281 382.205 522.255L118.436 369.496C110.764 365.067 106.038 356.881 106.038 348.022V288.008C106.038 283.161 111.286 280.131 115.483 282.555L248.284 359.609C255.643 363.879 264.862 358.569 264.862 350.061Z" fill="#06DAAE"/>
<path d="M280.826 365.925V267.39L330.698 296.229C335.63 299.076 339.107 303.9 340.25 309.479L361.339 412.455L280.826 365.925Z" fill="url(#paint5_linear_7_148)"/>
<path d="M492.609 250L381.853 313.945L404.616 412.454L515.373 348.509L492.609 250Z" fill="url(#paint6_linear_7_148)"/>
<path d="M280.568 466.661C280.568 436.44 298.942 422.549 321.607 435.635C344.273 448.722 362.647 483.828 362.647 514.049C362.647 544.27 344.272 558.161 321.607 545.075C298.941 531.989 280.568 496.882 280.568 466.661Z" fill="url(#paint7_linear_7_148)"/>
<path d="M337.155 526.223C348.431 521.419 350.687 501.366 342.195 481.435C333.702 461.503 317.676 449.24 306.401 454.045C295.125 458.85 292.868 478.902 301.361 498.833C309.853 518.765 325.879 531.028 337.155 526.223Z" fill="#E9E5F6"/>
<path d="M329.612 508.518C335.356 506.07 336.506 495.854 332.179 485.7C327.853 475.546 319.688 469.298 313.944 471.746C308.199 474.194 307.049 484.41 311.376 494.564C315.703 504.718 323.867 510.966 329.612 508.518Z" fill="#7662BD"/>
<path d="M126.309 377.315C126.309 347.094 144.683 333.203 167.348 346.289C190.014 359.376 208.388 394.483 208.388 424.703C208.388 454.924 190.013 468.815 167.348 455.729C144.682 442.644 126.309 407.536 126.309 377.315Z" fill="url(#paint8_linear_7_148)"/>
<path d="M182.878 436.962C194.154 432.158 196.411 412.105 187.918 392.174C179.426 372.243 163.4 359.98 152.124 364.784C140.848 369.589 138.592 389.641 147.084 409.573C155.577 429.504 171.602 441.767 182.878 436.962Z" fill="#E9E5F6"/>
<path d="M154.331 393.494C154.331 383.907 160.159 379.502 167.348 383.653C174.538 387.804 180.366 398.939 180.366 408.525C180.366 418.112 174.537 422.517 167.348 418.366C160.159 414.215 154.331 403.08 154.331 393.494Z" fill="#7662BD"/>
<path d="M527.372 432.506L394.158 505.444L369.606 493.644V522.201L390.669 534.362C394.387 536.508 398.968 536.508 402.686 534.362L531.399 460.049C533.075 459.082 533.911 457.389 533.911 455.696V427.139L527.372 432.506Z" fill="url(#paint9_linear_7_148)"/>
<path d="M375.304 490.355L397.898 503.399L527.733 428.439V420.67L531.399 422.787C534.749 424.721 534.749 429.557 531.399 431.491L402.686 505.803C398.968 507.95 394.387 507.95 390.669 505.803L369.606 493.643L375.304 490.355Z" fill="#A996EB"/>
<path d="M440.6 453.278L495.046 421.844V431.181C495.046 437.114 491.882 442.596 486.742 445.562L448.778 467.481C445.143 469.58 440.599 466.956 440.599 462.758V453.278H440.6Z" fill="url(#paint10_linear_7_148)"/>
<path d="M25.5482 151.327L120.027 205.875C124.854 208.663 127.828 213.814 127.828 219.388C127.828 224.242 122.573 227.277 118.368 224.849L23.8896 170.301C19.0621 167.514 16.0886 162.363 16.0886 156.789C16.0886 151.934 21.3437 148.9 25.5482 151.327Z" fill="url(#paint11_linear_7_148)"/>
<path d="M60.0854 211.482L154.564 266.03C159.392 268.818 162.365 273.969 162.365 279.543C162.365 284.397 157.11 287.432 152.905 285.004L58.4268 230.455C53.5993 227.668 50.6259 222.517 50.6259 216.943C50.6259 212.089 55.8809 209.055 60.0854 211.482Z" fill="url(#paint12_linear_7_148)"/>
<defs>
<linearGradient id="paint0_linear_7_148" x1="197.049" y1="377.475" x2="180.175" y2="348.248" gradientUnits="userSpaceOnUse">
<stop stop-color="#43386B"/>
<stop offset="1" stop-color="#7662BD"/>
</linearGradient>
<linearGradient id="paint1_linear_7_148" x1="351.308" y1="466.82" x2="334.434" y2="437.594" gradientUnits="userSpaceOnUse">
<stop stop-color="#43386B"/>
<stop offset="1" stop-color="#7662BD"/>
</linearGradient>
<linearGradient id="paint2_linear_7_148" x1="291.455" y1="224.943" x2="250.222" y2="224.943" gradientUnits="userSpaceOnUse">
<stop stop-color="#DEA861"/>
<stop offset="1" stop-color="#CC8241"/>
</linearGradient>
<linearGradient id="paint3_linear_7_148" x1="339.882" y1="41.5207" x2="185.465" y2="130.673" gradientUnits="userSpaceOnUse">
<stop stop-color="#DEA861"/>
<stop offset="1" stop-color="#EBCBA0"/>
</linearGradient>
<linearGradient id="paint4_linear_7_148" x1="434.455" y1="359.818" x2="379.537" y2="264.696" gradientUnits="userSpaceOnUse">
<stop stop-color="#236568"/>
<stop offset="0.1516" stop-color="#276A6C"/>
<stop offset="0.3251" stop-color="#337878"/>
<stop offset="0.5094" stop-color="#478E8C"/>
<stop offset="0.7011" stop-color="#62AFA7"/>
<stop offset="0.8968" stop-color="#86D7CA"/>
<stop offset="1" stop-color="#9BF0DF"/>
</linearGradient>
<linearGradient id="paint5_linear_7_148" x1="321.083" y1="407.417" x2="321.083" y2="282.884" gradientUnits="userSpaceOnUse">
<stop stop-color="#43386B"/>
<stop offset="1" stop-color="#7662BD"/>
</linearGradient>
<linearGradient id="paint6_linear_7_148" x1="448.613" y1="406.813" x2="448.613" y2="267.352" gradientUnits="userSpaceOnUse">
<stop stop-color="#43386B"/>
<stop offset="1" stop-color="#7662BD"/>
</linearGradient>
<linearGradient id="paint7_linear_7_148" x1="321.607" y1="566.838" x2="321.607" y2="418.759" gradientUnits="userSpaceOnUse">
<stop stop-color="#43386B"/>
<stop offset="1" stop-color="#7662BD"/>
</linearGradient>
<linearGradient id="paint8_linear_7_148" x1="167.348" y1="477.492" x2="167.348" y2="329.415" gradientUnits="userSpaceOnUse">
<stop stop-color="#43386B"/>
<stop offset="1" stop-color="#7662BD"/>
</linearGradient>
<linearGradient id="paint9_linear_7_148" x1="392.644" y1="481.556" x2="412.461" y2="481.556" gradientUnits="userSpaceOnUse">
<stop stop-color="#43386B"/>
<stop offset="1" stop-color="#7662BD"/>
</linearGradient>
<linearGradient id="paint10_linear_7_148" x1="467.823" y1="466.609" x2="467.823" y2="426.797" gradientUnits="userSpaceOnUse">
<stop stop-color="#43386B"/>
<stop offset="1" stop-color="#594A8E"/>
</linearGradient>
<linearGradient id="paint11_linear_7_148" x1="136.29" y1="227.677" x2="24.0443" y2="158.602" gradientUnits="userSpaceOnUse">
<stop stop-color="#43386B"/>
<stop offset="1" stop-color="#7662BD"/>
</linearGradient>
<linearGradient id="paint12_linear_7_148" x1="170.829" y1="287.831" x2="58.5815" y2="218.757" gradientUnits="userSpaceOnUse">
<stop stop-color="#43386B"/>
<stop offset="1" stop-color="#7662BD"/>
</linearGradient>
</defs>
</svg>
